<?xml version="1.0" encoding="UTF-8" standalone="no"?>
<svg
   xmlns:dc="http://purl.org/dc/elements/1.1/"
   xmlns:cc="http://creativecommons.org/ns#"
   xmlns:rdf="http://www.w3.org/1999/02/22-rdf-syntax-ns#"
   xmlns:svg="http://www.w3.org/2000/svg"
   xmlns="http://www.w3.org/2000/svg"
   xmlns:sodipodi="http://sodipodi.sourceforge.net/DTD/sodipodi-0.dtd"
   xmlns:inkscape="http://www.inkscape.org/namespaces/inkscape"
   id="svg2"
   xml:space="preserve"
   height="152.97"
   width="377.95"
   version="1.1"
   viewBox="0 0 377.952 152.97333"
   inkscape:version="0.91 r13725"
   sodipodi:docname="logo_sect.svg"><sodipodi:namedview
     pagecolor="#ffffff"
     bordercolor="#666666"
     borderopacity="1"
     objecttolerance="10"
     gridtolerance="10"
     guidetolerance="10"
     inkscape:pageopacity="0"
     inkscape:pageshadow="2"
     inkscape:window-width="1366"
     inkscape:window-height="705"
     id="namedview5800"
     showgrid="false"
     inkscape:snap-others="true"
     inkscape:snap-nodes="true"
     inkscape:snap-global="true"
     inkscape:zoom="3.0108618"
     inkscape:cx="110.70173"
     inkscape:cy="122.12773"
     inkscape:window-x="-8"
     inkscape:window-y="-8"
     inkscape:window-maximized="1"
     inkscape:current-layer="g5786" /><metadata
     id="metadata8"><rdf:RDF><cc:Work
         rdf:about=""><dc:format>image/svg+xml</dc:format><dc:type
           rdf:resource="http://purl.org/dc/dcmitype/StillImage" /><dc:title></dc:title></cc:Work></rdf:RDF></metadata><defs
     id="defs6"><clipPath
       id="clipPath18"
       clipPathUnits="userSpaceOnUse"><path
         id="path16"
         d="m0 114.73h283.46v-114.73h-283.46z" /></clipPath></defs><g
     id="g10"
     transform="matrix(1.3333 0 0 -1.3333 0 152.97)"><g
       id="g12"><g
         id="g14"
         clip-path="url(#clipPath18)"><g
           id="g20"
           transform="translate(15.412 113.29)"><path
             id="path22"
             d="m0 0c8.423-2.055 15.663-10.727 15.663-20.975 0-21.422-20.209-25.332-20.209-37.896 0-1.336 0.135-2.295 0.504-3.538-5.063 0.712-9.349 6.604-9.349 13.39 0 17.41 15.18 20.792 15.18 38.911 0 4.536-1.789 10.108-1.789 10.108"
             fill="#e4002b" /></g><g
           id="g24"
           transform="translate(35.876 88.526)"><path
             id="path26"
             d="m0 0c4.193-3.593 6.314-9.075 6.314-14.147 0-18.315-20.715-20.528-20.715-27.536 0-0.771 0.073-1.232 0.254-1.775-3.295 1.245-5.813 5.042-5.813 8.594 0 11.202 17.132 14.072 19.96 34.864"
             fill="#64a70b" /></g><g
           id="g28"
           transform="translate(5.0542 107.48)"><path
             id="path30"
             d="m0 0s1.012-1.79 1.012-3.793c0-6.428-6.067-8.881-6.067-15.414 0-3.076 1.671-5.608 4.044-7.075 0.069 0.547 0.115 1.085 0.253 1.514 1.423 4.543 8.084 9.571 8.084 16.678 0 4.277-3.538 7.77-7.326 8.09"
             fill="#00a3e0" /></g><g
           id="g32"
           transform="translate(60.317 56.074)"
           style="fill:#ffffff"><path
             id="path34"
             d="m0 0c2.933-2.643 5.717-4.198 9.731-4.198 2.219 0 6.28 0.937 6.28 3.868 0 1.697-1.277 2.546-3.775 2.971l-6.991 1.135c-6.23 0.994-9.63 4.295-9.63 9.25 0 8.119 6.561 11.473 13.739 11.473 5.575 0 11.05-2.265 14.828-6.462l-6.377-4.584c-2.217 2.687-5.477 4.25-9.018 4.25-1.935 0-4.768-1.229-4.768-3.4 0-1.793 1.461-2.695 4.672-3.211l3.211-0.52c6.705-1.084 12.234-3.162 12.234-9.58 0-10.106-9.118-11.998-15.4-11.998-5.711 0-11.074 1.851-15.659 6.846z"
             style="fill:#ffffff" /></g><g
           id="g36"
           transform="translate(105.13 73.495)"
           style="fill:#ffffff"><path
             id="path38"
             d="m0 0c-4.913 0-8.598-3.118-8.598-10.665 0-4.914 1.987-10.674 8.598-10.674 6.234 0 8.596 5.475 8.596 10.674 0 5.279-2.362 10.665-8.596 10.665m0-28.427c-10.72 0-17 8.316-17 17.762 0 9.433 6.28 17.744 17 17.744 10.716 0 17.003-8.311 17.003-17.744 0-9.446-6.287-17.762-17.003-17.762"
             style="fill:#ffffff" /></g><g
           id="g40"
           transform="translate(149.6 68.44)"
           style="fill:#ffffff"><path
             id="path42"
             d="m0 0c-1.184 3.117-4.064 5.052-6.987 5.052-4.633 0-8.311-3.118-8.311-10.662 0-4.913 1.982-10.674 8.592-10.674 2.269 0 5.574 1.703 6.893 4.721l6.662-3.211c-2.884-5.239-7.887-8.59-13.555-8.59-10.721 0-17.001 8.305-17.001 17.754 0 9.433 5.856 17.744 16.339 17.744 6.611 0 10.955-3.211 14.08-8.782z"
             style="fill:#ffffff" /></g><g
           id="g44"
           transform="translate(178.18 57.537)"
           style="fill:#ffffff"><path
             id="path46"
             d="m0 0-4.156 13.879h-0.094l-4.152-13.879zm-8.642 22.094h8.695l12.697-33.613h-9.016l-1.7 5.291h-12.423l-1.704-5.291h-8.968z"
             style="fill:#ffffff" /></g><g
           id="g48"
           transform="translate(202.66 64.341)"
           style="fill:#ffffff"><path
             id="path50"
             d="m0 0h7.697c2.695 0.042 4.486 1.407 4.486 4.525 0 3.122-1.791 4.484-4.486 4.533h-7.697zm-8.405 15.29h16.808c7.563 0 12.188-3.496 12.188-11.047 0-4.34-2.739-7.836-6.948-9.061l7.705-13.505h-9.404l-6.606 12.088h-5.338v-12.088h-8.405z"
             style="fill:#ffffff" /></g><g
           id="g52"
           transform="translate(104.36 33.272)"
           style="fill:#ffffff"><path
             id="path54"
             d="m0 0c-4.827 0-8.447-3.061-8.447-10.477 0-4.833 1.948-10.498 8.447-10.498 6.126 0 8.451 5.38 8.451 10.498 0 5.186-2.325 10.477-8.451 10.477m0-27.938c-10.54 0-16.708 8.173-16.708 17.461 0 9.268 6.168 17.44 16.708 17.44 10.534 0 16.712-8.172 16.712-17.44 0-9.288-6.178-17.461-16.712-17.461"
             fill="#9d9d9d"
             style="fill:#ffffff" /></g><g
           id="g56"
           transform="translate(180.93 39.302)"
           style="fill:#ffffff"><path
             id="path58"
             d="m0 0h12.108l5.842-24.538h0.087l6.037 24.538h11.959v-33.016h-7.789v25.635h-0.094l-6.536-25.635h-7.288l-6.72 25.635h-0.09v-25.635h-7.516z"
             fill="#9d9d9d"
             style="fill:#ffffff" /></g><g
           id="g60"
           transform="translate(258.46 24.051)"
           style="fill:#ffffff"><path
             id="path62"
             d="m0 0h7.559c2.637 0.056 4.402 1.399 4.402 4.463 0 3.054-1.765 4.393-4.402 4.447h-7.559zm-8.261 15.028h16.517c7.419 0 11.97-3.427 11.97-10.842 0-4.273-2.694-7.706-6.825-8.911l7.561-13.268h-9.229l-6.489 11.877h-5.244v-11.877h-8.261z"
             fill="#9d9d9d"
             style="fill:#ffffff" /></g><g
           id="g64"
           transform="translate(221.65 6.2246)"
           style="fill:#ffffff"><path
             id="path66"
             d="m0 0v33.023h24.296v-6.401h-16.048v-6.03h14.982v-6.402h-14.982v-7.787h17.439v-6.403z"
             fill="#9d9d9d"
             style="fill:#ffffff" /></g><g
           id="g68"
           transform="translate(125.16 6.3467)"
           style="fill:#ffffff"><path
             id="path70"
             d="m0 0h21.266v6.957h-12.808v26.174h-8.458z"
             fill="#9d9d9d"
             style="fill:#ffffff" /></g><g
           id="g72"
           transform="translate(65.035 33.13)"
           style="fill:#ffffff"><path
             id="path74"
             d="m0 0h6.217c3.464 0 4.925-1.784 4.925-5.029 0-2.515-1.244-4.942-4.714-4.942h-6.428zm-8.354-26.674h8.354v10.444h6.006c11.088 0 13.493 6.746 13.493 11.14 0 6.518-3.21 11.127-11.892 11.127h-15.961z"
             fill="#9d9d9d"
             style="fill:#ffffff" /></g><g
           id="g76"
           transform="translate(156.17 6.3467)"
           style="fill:#ffffff"><path
             id="path78"
             d="m0 0h8.41v15.359l12.361 17.583h-9.53l-7.037-11.384-7.04 11.384h-9.531l12.367-17.583z"
             fill="#9d9d9d"
             style="fill:#ffffff" /></g><g
           fill="#fff"
           id="g5786"><path
             id="path3376"
             d="m87.665 92.401c-5.327-0.847-10.047-3.065-13.904-6.532l-2.273-2.0437 4.4472-2.6408 4.4472-2.6408 1.7443 1.3815c5.5146 4.3676 13.76 5.2884 18.056 2.0162 2.5345-1.9306 2.3139-5.2799-0.43167-6.5553-0.77-0.358-4.516-1.161-8.325-1.785-7.755-1.271-10.922-2.43-13.392-4.9-2.34-2.34-3.088-4.334-3.09-8.239-0.0038-7.2672 4.5516-12.426 12.473-14.125 7.8343-1.6802 17.156 0.75331 23.103 6.0315l1.9295 1.7123-4.1578 2.9609-4.1578 2.9609-1.5617-1.4962c-4.517-4.33-11.751-5.358-15.5-2.204-1.063 0.895-1.35 1.49-1.35 2.801 0 2.8785 1.2602 3.5438 9.61 5.0731 10.343 1.8944 13.964 3.7331 15.967 8.1089 0.97655 2.1331 1.0977 2.9018 0.9257 5.8733-0.51738 8.9373-6.7704 13.768-18.651 14.408-2.0027 0.10787-4.6609 0.03391-5.9072-0.16437z"
             transform="matrix(0.75 0 0 -0.75 0 114.73)"
             style="fill:#ffffff" /><path
             id="path3378"
             d="m135.83 92.338c-1.3243-0.23368-3.8732-1.1298-5.6644-1.9913-14.096-6.7801-16.777-28.173-4.8932-39.054 8.4718-7.757 23.501-7.1524 31.097 1.2509 2.3208 2.5675 4.4556 6.5293 5.3606 9.9484 0.83431 3.1519 0.9357 9.7544 0.19682 12.817-1.3411 5.5583-5.6566 11.69-10.032 14.254-4.2236 2.4752-11.065 3.657-16.065 2.7748zm9.0806-9.6657c5.6778-2.579 8.4162-11.712 5.9276-19.769-1.8154-5.8775-6.7175-8.8863-12.794-7.8531-3.8305 0.65131-6.0608 2.2608-7.7735 5.6098-1.1845 2.316-1.3484 3.1233-1.4932 7.3524-0.26721 7.8067 1.678 12.276 6.2738 14.416 2.8999 1.3502 7.1902 1.4563 9.8596 0.24377z"
             transform="matrix(0.75 0 0 -0.75 0 114.73)"
             style="fill:#ffffff" /><path
             id="path3380"
             d="m186.84 92.36c-11.002-1.6002-18.696-11.175-18.673-23.238 0.0126-6.8322 2.2042-12.623 6.4693-17.095 3.9916-4.1848 8.8866-6.2013 15.002-6.1801 5.7521 0.01997 9.9752 1.6325 13.685 5.2255 2.0805 2.0149 4.9683 5.7633 4.6574 6.0454-0.0844 0.0766-1.9612 1.0431-4.1706 2.1479l-4.0171 2.0086-1.5255-2.0609c-2.2124-2.9889-4.79-4.2967-8.3901-4.2569-4.8904 0.05401-8.4148 2.6752-10.066 7.4859-1.0964 3.1954-1.0598 9.8367 0.0734 13.295 2.158 6.5861 8.9574 9.6581 14.811 6.6917 2.0378-1.0326 4.9314-3.7916 4.9314-4.702 0-0.33403 7.6272 3.1463 8.3606 3.815 0.40023 0.3649-1.9788 3.4472-4.3679 5.6591-3.0256 2.8011-6.2046 4.4408-9.9466 5.1303-2.8883 0.53217-3.36 0.53416-6.8336 0.02894v-0.000013z"
             transform="matrix(0.75 0 0 -0.75 0 114.73)"
             style="fill:#ffffff" /><path
             id="path3382"
             d="m209.82 91.375c0.003-0.06094 3.6553-9.9832 8.117-22.049l8.1123-21.939 5.7539-0.12304 5.7539-0.12304 8.139 21.618c4.4765 11.89 8.228 21.868 8.3367 22.172 0.15162 0.42493-1.1445 0.55401-5.5629 0.55401h-5.7605l-1.0598-3.4348-1.0598-3.4348h-8.5613-8.5613l-1.083 3.4348-1.083 3.4348h-5.7431c-3.1587 0-5.7409-0.04986-5.7383-0.1108zm27.756-15.734c-2.3717-8.3107-5.3629-17.839-5.6-17.839-0.23519 0-4.2478 12.659-5.6544 17.839-0.19284 0.7101 0.28285 0.77561 5.6326 0.77561 5.3538 0 5.8247-0.06496 5.6219-0.77561z"
             transform="matrix(0.75 0 0 -0.75 0 114.73)"
             style="fill:#ffffff" /><path
             id="path3384"
             d="m259.01 69.326v-22.16h13.249c12.166 0 13.493 0.07536 16.233 0.92161 3.8258 1.1817 6.7746 3.9524 8.0087 7.5251 1.1998 3.4735 1.0956 8.4109-0.23593 11.174-1.1768 2.4422-4.297 5.3736-6.4901 6.0974-0.83263 0.27479-1.5139 0.58832-1.5139 0.69675 0 0.10842 2.0813 3.8325 4.6252 8.2757s4.7591 8.4276 4.9227 8.8542c0.27423 0.71504-0.1648 0.77498-5.6224 0.76754l-5.9199-0.0081-4.432-8.1893-4.432-8.1893-3.6564-0.0019-3.6564-0.0019v8.1993 8.1993h-5.54-5.5401v-22.16zm23.227-2.1957c0.95249-0.22093 2.2489-0.91876 2.8808-1.5507 1.031-1.031 1.149-1.4883 1.149-4.4529 0-2.9787-0.11499-3.4189-1.1684-4.4723-1.4809-1.4809-3.706-1.9105-10.023-1.9349l-4.9861-0.0193v6.4265 6.4265l5.2077-0.01057c2.8642-0.0058 5.987-0.19134 6.9395-0.41227z"
             transform="matrix(0.75 0 0 -0.75 0 114.73)"
             style="fill:#ffffff" /><path
             id="path3386"
             d="m241.28 122.51v-21.717h7.9303c5.9416 0 7.9806 0.13893 8.1312 0.55401 0.11052 0.3047 1.8649 7.5843 3.8987 16.177 2.0338 8.5926 3.819 15.623 3.9672 15.623s2.055-7.2778 4.2372-16.173l3.9678-16.173 7.8669-0.004 7.8669-0.004v21.717 21.717h-5.0916-5.0916l-0.11601-17.174-0.116-17.174-4.3876 17.174-4.3875 17.174h-4.809c-2.6449 0-4.809-0.0817-4.809-0.18156 0-0.54685-8.4961-32.538-8.8385-33.28-0.25835-0.56022-0.41981 5.4335-0.43877 16.288l-0.03 17.174h-4.8752-4.8752v-21.717z"
             transform="matrix(0.75 0 0 -0.75 0 114.73)"
             style="fill:#ffffff" /><path
             id="path3388"
             d="m295.8 122.73v-21.939h15.955 15.955v4.2104 4.2104h-10.637-10.637v3.9888 3.9888h9.9721 9.9721v4.2104 4.2104h-9.9721-9.9721v5.3185 5.3185h11.523 11.523v4.2104 4.2104h-16.842-16.842v-21.939z"
             transform="matrix(0.75 0 0 -0.75 0 114.73)"
             style="fill:#ffffff" /><path
             id="path3390"
             d="m333.91 122.93v-21.74l13.85 0.13413c13.367 0.12946 13.927 0.1697 16.066 1.1532 4.9119 2.2588 7.3648 6.3922 7.417 12.499 0.0451 5.2707-2.2443 9.0004-6.9027 11.246l-2.0239 0.97543 4.8545 8.5459c2.67 4.7002 4.8545 8.6318 4.8545 8.7368 0 0.10502-2.6426 0.18662-5.8725 0.18133l-5.8725-0.01-4.2638-7.8573-4.2638-7.8573-3.6031-0.12873-3.6031-0.12872v7.9956 7.9956h-5.3185-5.3184v-21.74zm23.393-2.4272c2.1894-0.87602 3.1993-2.6143 3.1993-5.5067 0-5.0422-1.9811-6.2253-10.424-6.2253h-5.5311v6.2049 6.2049h5.5311c3.9296 0 6.0216-0.19625 7.225-0.67776z"
             transform="matrix(0.75 0 0 -0.75 0 114.73)"
             style="fill:#ffffff" /><path
             id="path3392"
             d="m208.49 134.14-0.002-10.083-6.7027-9.5289c-3.6865-5.2409-7.3925-10.476-8.2355-11.634l-1.5327-2.1052h6.199 6.199l4.5865 7.517c2.5226 4.1343 4.6862 7.5227 4.8081 7.5296 0.12188 0.007 2.2986-3.3757 4.8371-7.517l4.6155-7.5296h6.1738 6.1738l-1.5081 2.1052c-0.82948 1.1579-4.5379 6.4165-8.2409 11.686l-6.7327 9.5805v10.031 10.031h-5.3185-5.3185l-0.002-10.083z"
             transform="matrix(0.75 0 0 -0.75 0 114.73)"
             style="fill:#ffffff" /><path
             id="path3394"
             d="m167.27 122.29v-21.939h5.3185 5.3184v17.507 17.507h8.6425 8.6425v4.432 4.432h-13.961-13.961v-21.939z"
             transform="matrix(0.75 0 0 -0.75 0 114.73)"
             style="fill:#ffffff" /><path
             id="path3396"
             d="m133.06 144.91c-3.7107-1.022-6.2879-2.5602-9.2567-5.5251-4.565-4.5588-6.6157-9.7882-6.6157-16.87 0-12.018 7.406-21.077 18.561-22.702 11.634-1.6957 21.687 4.9667 24.648 16.334 0.84156 3.231 0.85402 9.8415 0.0244 12.958-2.0927 7.8625-7.8835 13.82-15.37 15.813-2.9044 0.77305-9.1713 0.76908-11.991-0.008v-0.00001zm10.498-9.0454c2.4161-1.1083 4.1234-2.9151 5.4951-5.8154 1.0336-2.1854 1.1529-2.965 1.1529-7.5345 0-4.384-0.1428-5.4068-1.021-7.3129-2.1003-4.5587-5.1971-6.5861-10.095-6.6089-7.7171-0.0359-11.657 5.3502-11.182 15.286 0.15383 3.2173 0.41846 4.3216 1.621 6.7644 1.4941 3.0349 2.9936 4.4472 5.7786 5.4424 2.3352 0.8345 6.1731 0.73158 8.2502-0.22126z"
             transform="matrix(0.75 0 0 -0.75 0 114.73)"
             style="fill:#ffffff" /><path
             id="path3398"
             d="m75.97 122.47v-21.757l12.742 0.18334c14.639 0.21064 15.958 0.46353 19.629 3.7643 2.8686 2.5792 3.9716 5.4882 3.9716 10.475 0 4.9805-0.89668 7.4433-3.7483 10.295-3.5845 3.5845-5.964 4.3136-14.755 4.5211l-7.2021 0.16998v7.0531 7.0531h-5.3185-5.3185v-21.757zm22.561-0.96335c2.1037-1.0811 2.9236-2.7883 2.9236-6.0875 0-2.3906-0.19787-3.3039-0.92914-4.2888-1.5186-2.0451-2.603-2.3457-8.489-2.3528l-5.4293-0.007v6.6481 6.6481l5.4293-0.007c3.426-0.004 5.8223-0.20853 6.4945-0.554z"
             transform="matrix(0.75 0 0 -0.75 0 114.73)"
             style="fill:#ffffff" /></g></g></g></g></svg>